<?xml version="1.0" encoding="utf-8"?>
<!-- Generator: Adobe Illustrator 19.0.0, SVG Export Plug-In . SVG Version: 6.00 Build 0)  -->
<svg version="1.1" id="Layer_1" xmlns="http://www.w3.org/2000/svg" xmlns:xlink="http://www.w3.org/1999/xlink" x="0px" y="0px"
	 viewBox="0 0 16 16" style="enable-background:new 0 0 16 16;" xml:space="preserve">
<style type="text/css">
	.st0{fill:#8D5BB4;}
	.st1{fill:none;stroke:#8D5BB4;stroke-width:2;stroke-linecap:round;stroke-linejoin:round;stroke-miterlimit:10;}
</style>
<g>
	<path class="st0" d="M8,2.7c2.7,0,5,2.2,5,5s-2.2,5-5,5c-2.7,0-5-2.2-5-5S5.3,2.7,8,2.7 M8,0.7c-3.8,0-7,3.1-7,7s3.1,7,7,7
		c3.8,0,7-3.1,7-7S11.8,0.7,8,0.7L8,0.7z"/>
</g>
<path class="st1" d="M11.7,2.1c0.3-0.5,0.9-0.8,1.5-0.8C14.2,1.2,15,2,15,3c0,0.6-0.3,1.2-0.8,1.5"/>
<path class="st1" d="M4.3,2.1C3.9,1.6,3.4,1.2,2.8,1.2C1.8,1.2,1,2,1,3c0,0.6,0.3,1.2,0.8,1.5"/>
<line class="st1" x1="8" y1="8.2" x2="8" y2="5"/>
<line class="st1" x1="8" y1="8.2" x2="10.1" y2="8.2"/>
<g>
	<line class="st1" x1="3.1" y1="14.6" x2="4.8" y2="12.9"/>
	<line class="st1" x1="12.9" y1="14.6" x2="11.2" y2="12.9"/>
</g>
</svg>
