<?xml version="1.0" encoding="utf-8"?>
<!-- Generator: Adobe Illustrator 19.0.0, SVG Export Plug-In . SVG Version: 6.00 Build 0)  -->
<svg version="1.1" id="Layer_1" xmlns="http://www.w3.org/2000/svg" xmlns:xlink="http://www.w3.org/1999/xlink" x="0px" y="0px"
	 viewBox="0 0 40 40" style="enable-background:new 0 0 40 40;" xml:space="preserve">
<style type="text/css">
	
		.st0{fill:none;stroke:#FEB737;stroke-width:4;stroke-linecap:round;stroke-linejoin:round;stroke-miterlimit:10;stroke-dasharray:6,0;}
	
		.st1{fill:none;stroke:#8D5BB4;stroke-width:4;stroke-linecap:round;stroke-linejoin:round;stroke-miterlimit:10;stroke-dasharray:6,0;}
	
		.st2{fill:none;stroke:#FFFFFF;stroke-width:4;stroke-linecap:round;stroke-linejoin:round;stroke-miterlimit:10;stroke-dasharray:6,0;}
	.st3{fill:none;stroke:#FFFFFF;stroke-width:4;stroke-linecap:round;stroke-miterlimit:10;}
	.st4{fill:none;stroke:#8D5BB4;stroke-width:4;stroke-linecap:round;stroke-miterlimit:10;}
	.st5{fill:none;stroke:#FEB737;stroke-width:4;stroke-linecap:round;stroke-miterlimit:10;}
</style>
<line class="st0" x1="3" y1="38" x2="3" y2="7"/>
<line class="st1" x1="36" y1="38" x2="3" y2="38"/>
<line class="st2" x1="36" y1="7" x2="36" y2="38"/>
<line class="st1" x1="36" y1="7" x2="3" y2="7"/>
<line class="st0" x1="3" y1="26" x2="3" y2="7"/>
<line class="st2" x1="13" y1="2" x2="13" y2="11"/>
<line class="st0" x1="26" y1="2" x2="26" y2="11"/>
<line class="st3" x1="13.3" y1="18.7" x2="13.3" y2="18.7"/>
<line class="st1" x1="19.7" y1="18.7" x2="19.7" y2="18.7"/>
<line class="st4" x1="26.1" y1="18.7" x2="26.1" y2="18.7"/>
<line class="st0" x1="13.3" y1="25.1" x2="13.3" y2="25.1"/>
<line class="st3" x1="19.7" y1="25.1" x2="19.7" y2="25.1"/>
<line class="st4" x1="26.1" y1="25.1" x2="26.1" y2="25.1"/>
<line class="st1" x1="13.3" y1="31.6" x2="13.3" y2="31.6"/>
<line class="st5" x1="19.7" y1="31.6" x2="19.7" y2="31.6"/>
</svg>
