<?xml version="1.0" encoding="utf-8"?>
<!-- Generator: Adobe Illustrator 19.0.0, SVG Export Plug-In . SVG Version: 6.00 Build 0)  -->
<svg version="1.1" id="Layer_1" xmlns="http://www.w3.org/2000/svg" xmlns:xlink="http://www.w3.org/1999/xlink" x="0px" y="0px"
	 viewBox="0 0 30 32" style="enable-background:new 0 0 30 32;" xml:space="preserve">
<style type="text/css">
	
		.st0{fill:none;stroke:#FEB737;stroke-width:4;stroke-linecap:round;stroke-linejoin:round;stroke-miterlimit:10;stroke-dasharray:6,0;}
	
		.st1{fill:none;stroke:#8D5BB4;stroke-width:4;stroke-linecap:round;stroke-linejoin:round;stroke-miterlimit:10;stroke-dasharray:6,0;}
	.st2{fill:none;stroke:#E191E5;stroke-width:4;stroke-linecap:round;stroke-linejoin:round;stroke-miterlimit:10;}
	.st3{fill:none;stroke:#A6C3FD;stroke-width:4;stroke-linecap:round;stroke-miterlimit:10;}
	.st4{fill:none;stroke:#8D5BB4;stroke-width:4;stroke-linecap:round;stroke-linejoin:round;stroke-miterlimit:10;}
	.st5{fill:none;stroke:#8D5BB4;stroke-width:4;stroke-linecap:round;stroke-miterlimit:10;}
	.st6{fill:none;stroke:#FEB737;stroke-width:4;stroke-linecap:round;stroke-miterlimit:10;}
</style>
<g>
	<line class="st0" x1="2" y1="30" x2="2" y2="5"/>
	<line class="st1" x1="28" y1="30" x2="2" y2="30"/>
	<line class="st2" x1="28" y1="5" x2="28" y2="30"/>
	<line class="st1" x1="28" y1="5" x2="2" y2="5"/>
	<line class="st0" x1="2" y1="20" x2="2" y2="5"/>
	<line class="st3" x1="10" y1="2" x2="10" y2="9"/>
	<line class="st0" x1="20" y1="2" x2="20" y2="9"/>
	<line class="st4" x1="10.3" y1="14.9" x2="10.3" y2="14.9"/>
	<line class="st1" x1="15.3" y1="14.9" x2="15.3" y2="14.9"/>
	<line class="st5" x1="20.3" y1="14.9" x2="20.3" y2="14.9"/>
	<line class="st0" x1="10.3" y1="19.9" x2="10.3" y2="19.9"/>
	<line class="st3" x1="15.3" y1="19.9" x2="15.3" y2="19.9"/>
	<line class="st5" x1="20.3" y1="19.9" x2="20.3" y2="19.9"/>
	<line class="st1" x1="10.3" y1="24.9" x2="10.3" y2="24.9"/>
	<line class="st6" x1="15.3" y1="24.9" x2="15.3" y2="24.9"/>
</g>
</svg>
