<?xml version="1.0" encoding="utf-8"?>
<!-- Generator: Adobe Illustrator 19.0.0, SVG Export Plug-In . SVG Version: 6.00 Build 0)  -->
<svg version="1.1" id="Layer_1" xmlns="http://www.w3.org/2000/svg" xmlns:xlink="http://www.w3.org/1999/xlink" x="0px" y="0px"
	 viewBox="0 0 40 40" style="enable-background:new 0 0 40 40;" xml:space="preserve">
<style type="text/css">
	.st0{fill:none;stroke:#FFFFFF;stroke-width:4;stroke-linecap:round;stroke-miterlimit:10;}
	.st1{fill:none;stroke:#8D5BB4;stroke-width:4;stroke-linecap:round;stroke-miterlimit:10;}
	.st2{fill:none;stroke:#A6C3FD;stroke-width:4;stroke-linecap:round;stroke-miterlimit:10;}
</style>
<path class="st0" d="M12,10.1c0-4.4,3.6-8,8-8"/>
<path class="st1" d="M20,2.1c4.4,0,8,3.6,8,8"/>
<path class="st0" d="M3,34.1c0,0,7.6,3.9,17,3.9s17-3.9,17-3.9"/>
<path class="st1" d="M37,34.1c0-6-3.1-11.2-7.7-14.2"/>
<path class="st2" d="M28,10.1c0,4.4-3.6,8-8,8s-8-3.6-8-8"/>
<path class="st2" d="M29.3,19.8c-2.4,2.3-5.7,3.7-9.3,3.7s-6.9-1.4-9.3-3.7"/>
<path class="st1" d="M10.7,19.8C6.1,22.9,3,28.1,3,34.1"/>
</svg>
