<?xml version="1.0" encoding="utf-8"?>
<!-- Generator: Adobe Illustrator 19.0.0, SVG Export Plug-In . SVG Version: 6.00 Build 0)  -->
<svg version="1.1" id="Layer_1" xmlns="http://www.w3.org/2000/svg" xmlns:xlink="http://www.w3.org/1999/xlink" x="0px" y="0px"
	 viewBox="0 0 40 40" style="enable-background:new 0 0 40 40;" xml:space="preserve">
<style type="text/css">
	
		.st0{fill:none;stroke:#8D5BB4;stroke-width:4;stroke-linecap:round;stroke-linejoin:round;stroke-miterlimit:10;stroke-dasharray:1,0;}
	
		.st1{fill:none;stroke:#FFFFFF;stroke-width:4;stroke-linecap:round;stroke-linejoin:round;stroke-miterlimit:10;stroke-dasharray:1,0;}
	.st2{fill:none;stroke:#A6C3FD;stroke-width:4;stroke-linecap:round;stroke-miterlimit:10;}
	.st3{fill:none;stroke:#FEB737;stroke-width:4;stroke-linecap:round;stroke-linejoin:round;stroke-miterlimit:10;}
	
		.st4{fill:none;stroke:#FEB737;stroke-width:4;stroke-linecap:round;stroke-linejoin:round;stroke-miterlimit:10;stroke-dasharray:1,0;}
	.st5{fill:none;stroke:#A6C3FD;stroke-width:4;stroke-linecap:round;stroke-linejoin:round;stroke-miterlimit:10;}
</style>
<line class="st0" x1="20" y1="24" x2="20" y2="15"/>
<line class="st1" x1="20" y1="38" x2="20" y2="24"/>
<g>
	<path class="st2" d="M20,6c0,0-4.6,3.6-6.8,3.6C10.9,9.6,9.1,8,9.1,6c0-2,1.8-3.6,4.1-3.6C15.4,2.4,20,6,20,6z"/>
	<path class="st3" d="M20,6c0,0,4.6,3.6,6.8,3.6c2.3,0,4.1-1.6,4.1-3.6c0-2-1.8-3.6-4.1-3.6C24.6,2.4,20,6,20,6z"/>
</g>
<line class="st2" x1="7" y1="38" x2="7" y2="24"/>
<line class="st4" x1="33" y1="38" x2="33" y2="24"/>
<line class="st5" x1="33" y1="38" x2="7" y2="38"/>
<line class="st4" x1="3" y1="24" x2="3" y2="15"/>
<line class="st1" x1="3" y1="15" x2="37" y2="15"/>
<line class="st4" x1="3" y1="24" x2="37" y2="24"/>
<line class="st2" x1="37" y1="24" x2="37" y2="15"/>
</svg>
