<?xml version="1.0" encoding="utf-8"?>
<!-- Generator: Adobe Illustrator 18.1.1, SVG Export Plug-In . SVG Version: 6.00 Build 0)  -->
<svg version="1.1" id="Layer_1" xmlns="http://www.w3.org/2000/svg" xmlns:xlink="http://www.w3.org/1999/xlink" x="0px" y="0px"
	 viewBox="0 0 420.9 152.5" enable-background="new 0 0 420.9 152.5" xml:space="preserve">
<path fill="#A7C3FE" d="M1.7,14.2c0-3.8,1.4-7.1,4.2-10C8.6,1.4,11.9,0,15.9,0c1.8,0,3.6,0.4,5.4,1.1c1.7,0.8,3.3,1.8,4.6,3.1
	c1.3,1.3,2.4,2.9,3.1,4.6c0.8,1.7,1.1,3.5,1.1,5.4c0,3.9-1.4,7.3-4.2,10.1c-2.8,2.8-6.2,4.2-10,4.2c-3.9,0-7.3-1.4-10.1-4.2
	C3.1,21.5,1.7,18.1,1.7,14.2 M1.7,48.4c0-5.8,1.4-10,4.1-12.7c2.7-2.7,6.1-4,10.1-4c3.9,0,7.3,1.3,10,4c2.7,2.7,4.1,6.9,4.1,12.7
	v54.2c0,5.8-1.4,10-4.1,12.6c-2.7,2.6-6,3.9-10,3.9c-4,0-7.4-1.3-10.1-3.9c-2.7-2.6-4.1-6.8-4.1-12.6V48.4z"/>
<path fill="#FEB737" d="M40.2,48.3c0-4.9,1.3-8.7,3.8-11.6c2.5-2.9,6-4.4,10.3-4.5c3.7,0,7,1.4,9.7,4.1c2.9-1.4,6.1-2.5,9.4-3.3
	c3.3-0.9,7-1.3,11-1.3c6,0,11.6,1.1,16.9,3.4c5.3,2.3,9.9,5.4,13.8,9.3c4,4,7.1,8.6,9.4,13.9c2.3,5.3,3.5,11,3.5,17
	c0,6-1.2,11.7-3.5,17c-2.3,5.3-5.5,10-9.4,13.9c-4,4-8.6,7.1-13.8,9.3c-5.3,2.3-10.9,3.4-16.9,3.4c-3.1,0-5.9-0.2-8.6-0.7
	c-2.7-0.5-5.3-1.2-7.9-2.4v20.4c0,5.7-1.3,9.8-4,12.4c-2.7,2.6-5.9,3.9-9.6,3.9c-5,0-8.6-1.4-10.8-4.3c-2.2-2.9-3.3-6.9-3.3-12V48.3
	z M100.5,75.3c0-4.8-1.6-8.7-4.7-11.7c-3.1-3.1-6.9-4.6-11.5-4.6c-4.8,0-8.7,1.5-11.7,4.6c-3.1,3.1-4.6,7-4.6,11.7S69.6,84,72.6,87
	c3.1,3.1,7,4.6,11.7,4.6c4.5,0,8.3-1.5,11.5-4.6C98.9,84,100.5,80.1,100.5,75.3"/>
<path fill="#E8D6AD" d="M138.1,75.1c0-6,1.1-11.7,3.4-17c2.3-5.3,5.4-10,9.3-13.9c4-4,8.6-7.1,13.9-9.3c5.3-2.3,11-3.4,17.1-3.4
	c6,0,11.7,1.1,17,3.4c5.3,2.3,10,5.4,13.9,9.3c4,4,7.1,8.6,9.3,13.9c2.3,5.3,3.4,11,3.4,17c0,6.1-1.1,11.8-3.4,17.1
	c-2.3,5.3-5.4,10-9.3,14c-4,4-8.6,7.2-13.9,9.4c-5.3,2.3-11,3.4-17,3.4c-6.1,0-11.8-1.1-17.1-3.4c-5.3-2.3-10-5.4-13.9-9.4
	c-4-4-7.1-8.7-9.3-14C139.2,87,138.1,81.2,138.1,75.1 M165.9,75.1c0,4.5,1.5,8.4,4.6,11.5c3.1,3.1,6.8,4.7,11.4,4.7
	c2.2,0,4.2-0.4,6.2-1.3c2-0.8,3.7-2,5.1-3.4c1.4-1.4,2.5-3.1,3.4-5.1c0.8-2,1.3-4.1,1.3-6.4c0-2.1-0.4-4.2-1.3-6.2
	c-0.8-2-2-3.7-3.4-5.1c-1.4-1.4-3.1-2.5-5.1-3.4c-2-0.9-4-1.3-6.2-1.3c-4.5,0-8.3,1.6-11.4,4.7C167.5,67,165.9,70.7,165.9,75.1"/>
<path fill="#E192E5" d="M235.7,48.2c0-4.9,1.3-8.7,3.8-11.6c2.5-2.9,6-4.4,10.3-4.5c3.7,0,7,1.4,9.7,4.1c2.9-1.4,6.1-2.5,9.4-3.3
	c3.3-0.9,7-1.3,11-1.3c6,0,11.6,1.1,16.9,3.4c5.3,2.3,9.9,5.4,13.8,9.3c4,4,7.1,8.6,9.4,13.9c2.3,5.3,3.5,11,3.5,17
	c0,6-1.2,11.7-3.5,17c-2.3,5.3-5.5,10-9.4,13.9c-4,4-8.6,7.1-13.8,9.3c-5.3,2.3-10.9,3.4-16.9,3.4c-3.1,0-5.9-0.2-8.6-0.7
	c-2.7-0.5-5.3-1.2-7.9-2.4v20.4c0,5.7-1.3,9.8-4,12.4c-2.7,2.6-5.9,3.9-9.6,3.9c-5,0-8.6-1.4-10.8-4.3c-2.2-2.9-3.3-6.9-3.3-12V48.2
	z M295.9,75.2c0-4.8-1.6-8.7-4.7-11.7c-3.1-3.1-6.9-4.6-11.5-4.6c-4.8,0-8.7,1.5-11.7,4.6c-3.1,3.1-4.6,7-4.6,11.7s1.5,8.7,4.6,11.7
	c3.1,3.1,7,4.6,11.7,4.6c4.5,0,8.3-1.5,11.5-4.6C294.4,83.8,295.9,79.9,295.9,75.2"/>
<path fill="#8E5BB4" d="M333.5,75.1c0-6,1.1-11.7,3.4-17c2.3-5.3,5.4-10,9.3-13.9c4-4,8.6-7.1,13.9-9.3c5.3-2.3,11-3.4,17.1-3.4
	c6,0,11.7,1.1,17,3.4c5.3,2.3,10,5.4,13.9,9.3c4,4,7.1,8.6,9.3,13.9c2.3,5.3,3.4,11,3.4,17c0,6.1-1.1,11.8-3.4,17.1
	c-2.3,5.3-5.4,10-9.3,14c-4,4-8.6,7.2-13.9,9.4c-5.3,2.3-11,3.4-17,3.4c-6.1,0-11.8-1.1-17.1-3.4c-5.3-2.3-10-5.4-13.9-9.4
	c-4-4-7.1-8.7-9.3-14C334.6,87,333.5,81.2,333.5,75.1"/>
<path fill="#FFFFFF" d="M370.7,60c2.6,0.3,4.8-0.9,6.7-2.4c1.8,1.4,3.8,2.5,6.3,2.5c2.8,0,4.9-2.2,5.1-4.9c0.2-2.5-2.3-4.5-4.5-4.8
	c-2.6-0.3-4.8,0.9-6.7,2.4c-1.8-1.4-3.8-2.5-6.3-2.5c-2.8,0-4.9,2.2-5.1,4.9C366,57.7,368.5,59.7,370.7,60 M382.1,53.7
	c1.3-0.5,3.4-0.2,3.6,1.5c0.1,1.6-2.1,1.8-3.2,1.6c-1.1-0.2-2.1-0.8-3-1.5C380.3,54.6,381.1,54,382.1,53.7 M372.5,53.6
	c1.1,0.2,2.1,0.8,3,1.5c-0.8,0.7-1.6,1.3-2.6,1.6c-1.3,0.5-3.4,0.2-3.6-1.5C369.2,53.6,371.5,53.4,372.5,53.6"/>
<path fill="#FFFFFF" d="M357.4,89.2c0,4.8,4.5,8.7,10,8.7h20.4c5.5,0,10-3.9,10-8.7v-14h-40.3V89.2z"/>
<path fill="#FFFFFF" d="M387.7,61.9h-20.4c-5.5,0-10,2.8-10,6.4V72h40.3v-3.8C397.7,64.7,393.2,61.9,387.7,61.9"/>
</svg>
