<?xml version="1.0" encoding="utf-8"?>
<!-- Generator: Adobe Illustrator 19.0.0, SVG Export Plug-In . SVG Version: 6.00 Build 0)  -->
<svg version="1.1" id="Layer_1" xmlns="http://www.w3.org/2000/svg" xmlns:xlink="http://www.w3.org/1999/xlink" x="0px" y="0px"
	 viewBox="0 0 52 52" style="enable-background:new 0 0 52 52;" xml:space="preserve">
<style type="text/css">
	.st0{fill:#FEB737;}
	.st1{fill:#A6C3FD;}
	.st2{fill:#E191E5;}
	.st3{fill:#8D5BB4;}
</style>
<g>
	<path class="st0" d="M3.6,25.5c-0.1,0-0.1,0-0.2,0c-1.1-0.1-1.9-1.1-1.8-2.2C2.1,17.5,4.7,12,8.8,7.8c9.7-9.7,25.6-9.7,35.4,0
		c2.2,2.2,3.9,4.7,5.2,7.5c0.5,1,0,2.2-1,2.6c-1,0.5-2.2,0-2.6-1c-1-2.3-2.5-4.5-4.3-6.3c-8.2-8.2-21.5-8.2-29.7,0
		c-3.5,3.5-5.6,8.1-6.1,13C5.5,24.7,4.6,25.5,3.6,25.5z"/>
</g>
<g>
	<path class="st1" d="M25.9,51.2c-6.4,0-12.8-2.4-17.7-7.3C6,41.7,4.3,39.2,3,36.4c-0.5-1,0-2.2,1-2.6c1-0.4,2.2,0,2.6,1
		c1,2.3,2.5,4.5,4.3,6.3c8.2,8.2,21.5,8.2,29.7,0c3.5-3.5,5.6-8.1,6.1-13c0.1-1.1,1-1.9,2.2-1.8c1.1,0.1,1.9,1.1,1.8,2.2
		c-0.5,5.8-3.1,11.3-7.2,15.5C38.7,48.8,32.3,51.2,25.9,51.2z"/>
</g>
<g>
	<path class="st0" d="M2,52c-1.1,0-2-0.9-2-2V34c0-1.1,0.9-2,2-2s2,0.9,2,2v16C4,51.1,3.1,52,2,52z"/>
</g>
<g>
	<path class="st2" d="M18,36H2c-1.1,0-2-0.9-2-2c0-1.1,0.9-2,2-2h16c1.1,0,2,0.9,2,2C20,35.1,19.1,36,18,36z"/>
</g>
<g>
	<g>
		<path class="st1" d="M50,20c-1.1,0-2-0.9-2-2V2c0-1.1,0.9-2,2-2s2,0.9,2,2v16C52,19.1,51.1,20,50,20z"/>
	</g>
	<g>
		<path class="st3" d="M50,20H34c-1.1,0-2-0.9-2-2c0-1.1,0.9-2,2-2h16c1.1,0,2,0.9,2,2C52,19.1,51.1,20,50,20z"/>
	</g>
</g>
</svg>
