<?xml version="1.0" encoding="utf-8"?>
<!-- Generator: Adobe Illustrator 19.0.0, SVG Export Plug-In . SVG Version: 6.00 Build 0)  -->
<svg version="1.1" id="Layer_1" xmlns="http://www.w3.org/2000/svg" xmlns:xlink="http://www.w3.org/1999/xlink" x="0px" y="0px"
	 viewBox="0 0 32 32" style="enable-background:new 0 0 32 32;" xml:space="preserve">
<style type="text/css">
	.st0{fill:none;stroke:#E191E5;stroke-width:4;stroke-linecap:round;stroke-linejoin:round;stroke-miterlimit:10;}
	.st1{fill:none;stroke:#8D5BB4;stroke-width:4;stroke-linecap:round;stroke-miterlimit:10;}
	
		.st2{fill:none;stroke:#FEB737;stroke-width:4;stroke-linecap:round;stroke-linejoin:round;stroke-miterlimit:10;stroke-dasharray:6,0;}
	.st3{fill:none;stroke:#A6C3FD;stroke-width:4;stroke-linecap:round;stroke-miterlimit:10;}
</style>
<path class="st0" d="M9.1,8.1c0-3.5,2.8-6.3,6.3-6.3"/>
<path class="st1" d="M15.3,1.8c3.5,0,6.3,2.8,6.3,6.3"/>
<path class="st2" d="M2,26.9c0,0,6,3,13.3,3c7.4,0,13.3-3,13.3-3"/>
<path class="st3" d="M21.6,8.1c0,3.5-2.8,6.3-6.3,6.3c-3.5,0-6.3-2.8-6.3-6.3"/>
<path class="st3" d="M22.6,15.8c-1.9,1.8-4.5,2.9-7.3,2.9c-2.8,0-5.4-1.1-7.3-2.9"/>
<path class="st1" d="M8,15.8c-3.6,2.4-6,6.5-6,11.1"/>
<line class="st1" x1="27.4" y1="16.9" x2="27.4" y2="22.9"/>
<line class="st1" x1="30.4" y1="19.9" x2="24.4" y2="19.9"/>
</svg>
