<?xml version="1.0" encoding="utf-8"?>
<!-- Generator: Adobe Illustrator 16.0.0, SVG Export Plug-In . SVG Version: 6.00 Build 0)  -->
<!DOCTYPE svg PUBLIC "-//W3C//DTD SVG 1.1//EN" "http://www.w3.org/Graphics/SVG/1.1/DTD/svg11.dtd">
<svg version="1.1" id="Layer_1" xmlns="http://www.w3.org/2000/svg" xmlns:xlink="http://www.w3.org/1999/xlink" x="0px" y="0px"
	 width="889px" height="8px" viewBox="0 0 2000 18" enable-background="new 0 0 2000 18" xml:space="preserve">
<g>
	<defs>
		<rect id="SVGID_1_" width="2000" height="18"/>
	</defs>
	<clipPath id="SVGID_2_">
		<use xlink:href="#SVGID_1_"  overflow="visible"/>
	</clipPath>
	<g clip-path="url(#SVGID_2_)">
		<g>
			<path fill="none" stroke="#8D5BB4" stroke-width="4" stroke-linecap="round" stroke-miterlimit="10" d="M-3.167,15
				C4.358,15,8.515,3,16.608,3c8.111,0,12.26,12,19.784,12c7.523,0,11.673-12,19.774-12"/>
		</g>
		<g>
			<path fill="none" stroke="#FEB737" stroke-width="4" stroke-linecap="round" stroke-miterlimit="10" d="M115.167,15
				c-7.525,0-11.682-12-19.775-12c-8.111,0-12.26,12-19.784,12C68.084,15,63.935,3,55.833,3"/>
			<path fill="none" stroke="#A6C3FD" stroke-width="4" stroke-linecap="round" stroke-miterlimit="10" d="M114.833,15
				c7.525,0,11.682-12,19.775-12c8.111,0,12.26,12,19.784,12c7.523,0,11.673-12,19.774-12"/>
			<path fill="none" stroke="#E191E5" stroke-width="4" stroke-linecap="round" stroke-miterlimit="10" d="M233.167,15
				c-7.525,0-11.682-12-19.775-12c-8.111,0-12.26,12-19.784,12c-7.523,0-11.673-12-19.774-12"/>
			<path fill="none" stroke="#8D5BB4" stroke-width="4" stroke-linecap="round" stroke-miterlimit="10" d="M232.833,15
				c7.525,0,11.682-12,19.775-12c8.111,0,12.26,12,19.784,12c7.523,0,11.673-12,19.774-12"/>
		</g>
		<g>
			<path fill="none" stroke="#FEB737" stroke-width="4" stroke-linecap="round" stroke-miterlimit="10" d="M351.167,15
				c-7.525,0-11.682-12-19.775-12c-8.111,0-12.26,12-19.784,12c-7.523,0-11.673-12-19.774-12"/>
			<path fill="none" stroke="#A6C3FD" stroke-width="4" stroke-linecap="round" stroke-miterlimit="10" d="M350.833,15
				c7.525,0,11.682-12,19.775-12c8.111,0,12.26,12,19.784,12c7.523,0,11.673-12,19.774-12"/>
			<path fill="none" stroke="#E191E5" stroke-width="4" stroke-linecap="round" stroke-miterlimit="10" d="M469.167,15
				c-7.525,0-11.682-12-19.775-12c-8.111,0-12.26,12-19.784,12c-7.523,0-11.673-12-19.774-12"/>
			<path fill="none" stroke="#8D5BB4" stroke-width="4" stroke-linecap="round" stroke-miterlimit="10" d="M468.833,15
				c7.525,0,11.682-12,19.775-12c8.111,0,12.26,12,19.784,12c7.523,0,11.673-12,19.774-12"/>
		</g>
		<g>
			<path fill="none" stroke="#FEB737" stroke-width="4" stroke-linecap="round" stroke-miterlimit="10" d="M587.167,15
				c-7.525,0-11.682-12-19.775-12c-8.111,0-12.26,12-19.784,12c-7.523,0-11.673-12-19.774-12"/>
			<path fill="none" stroke="#A6C3FD" stroke-width="4" stroke-linecap="round" stroke-miterlimit="10" d="M586.833,15
				c7.525,0,11.682-12,19.775-12c8.111,0,12.26,12,19.784,12c7.523,0,11.673-12,19.774-12"/>
			<path fill="none" stroke="#E191E5" stroke-width="4" stroke-linecap="round" stroke-miterlimit="10" d="M705.167,15
				c-7.525,0-11.682-12-19.775-12c-8.111,0-12.26,12-19.784,12c-7.523,0-11.673-12-19.774-12"/>
			<path fill="none" stroke="#8D5BB4" stroke-width="4" stroke-linecap="round" stroke-miterlimit="10" d="M704.833,15
				c7.525,0,11.682-12,19.775-12c8.111,0,12.26,12,19.784,12c7.523,0,11.673-12,19.774-12"/>
		</g>
		<g>
			<path fill="none" stroke="#FEB737" stroke-width="4" stroke-linecap="round" stroke-miterlimit="10" d="M823.167,15
				c-7.525,0-11.682-12-19.775-12c-8.111,0-12.26,12-19.784,12c-7.523,0-11.673-12-19.774-12"/>
			<path fill="none" stroke="#A6C3FD" stroke-width="4" stroke-linecap="round" stroke-miterlimit="10" d="M822.833,15
				c7.525,0,11.682-12,19.775-12c8.111,0,12.26,12,19.784,12c7.523,0,11.673-12,19.774-12"/>
			<path fill="none" stroke="#E191E5" stroke-width="4" stroke-linecap="round" stroke-miterlimit="10" d="M941.167,15
				c-7.525,0-11.682-12-19.775-12c-8.111,0-12.26,12-19.784,12c-7.523,0-11.673-12-19.774-12"/>
			<path fill="none" stroke="#8D5BB4" stroke-width="4" stroke-linecap="round" stroke-miterlimit="10" d="M940.833,15
				c7.525,0,11.682-12,19.775-12c8.111,0,12.26,12,19.784,12c7.523,0,11.673-12,19.774-12"/>
		</g>
		<g>
			<path fill="none" stroke="#FEB737" stroke-width="4" stroke-linecap="round" stroke-miterlimit="10" d="M1059.167,15
				c-7.525,0-11.682-12-19.775-12c-8.111,0-12.26,12-19.784,12c-7.523,0-11.673-12-19.774-12"/>
			<path fill="none" stroke="#A6C3FD" stroke-width="4" stroke-linecap="round" stroke-miterlimit="10" d="M1058.833,15
				c7.525,0,11.682-12,19.775-12c8.111,0,12.26,12,19.784,12c7.523,0,11.673-12,19.774-12"/>
			<path fill="none" stroke="#E191E5" stroke-width="4" stroke-linecap="round" stroke-miterlimit="10" d="M1177.167,15
				c-7.525,0-11.682-12-19.775-12c-8.111,0-12.26,12-19.784,12c-7.523,0-11.673-12-19.774-12"/>
			<path fill="none" stroke="#8D5BB4" stroke-width="4" stroke-linecap="round" stroke-miterlimit="10" d="M1176.833,15
				c7.525,0,11.682-12,19.775-12c8.111,0,12.26,12,19.784,12c7.523,0,11.673-12,19.774-12"/>
		</g>
		<g>
			<path fill="none" stroke="#FEB737" stroke-width="4" stroke-linecap="round" stroke-miterlimit="10" d="M1295.167,15
				c-7.525,0-11.682-12-19.775-12c-8.111,0-12.26,12-19.784,12c-7.523,0-11.673-12-19.774-12"/>
			<path fill="none" stroke="#A6C3FD" stroke-width="4" stroke-linecap="round" stroke-miterlimit="10" d="M1294.833,15
				c7.525,0,11.682-12,19.775-12c8.111,0,12.26,12,19.784,12c7.523,0,11.673-12,19.774-12"/>
			<path fill="none" stroke="#E191E5" stroke-width="4" stroke-linecap="round" stroke-miterlimit="10" d="M1413.167,15
				c-7.525,0-11.682-12-19.775-12c-8.111,0-12.26,12-19.784,12c-7.523,0-11.673-12-19.774-12"/>
			<path fill="none" stroke="#8D5BB4" stroke-width="4" stroke-linecap="round" stroke-miterlimit="10" d="M1412.833,15
				c7.525,0,11.682-12,19.775-12c8.111,0,12.26,12,19.784,12c7.523,0,11.673-12,19.774-12"/>
		</g>
		<g>
			<path fill="none" stroke="#FEB737" stroke-width="4" stroke-linecap="round" stroke-miterlimit="10" d="M1531.167,15
				c-7.525,0-11.682-12-19.775-12c-8.111,0-12.26,12-19.784,12c-7.523,0-11.673-12-19.774-12"/>
			<path fill="none" stroke="#A6C3FD" stroke-width="4" stroke-linecap="round" stroke-miterlimit="10" d="M1530.833,15
				c7.525,0,11.682-12,19.775-12c8.111,0,12.26,12,19.784,12c7.523,0,11.673-12,19.774-12"/>
			<path fill="none" stroke="#E191E5" stroke-width="4" stroke-linecap="round" stroke-miterlimit="10" d="M1649.167,15
				c-7.525,0-11.682-12-19.775-12c-8.111,0-12.26,12-19.784,12c-7.523,0-11.673-12-19.774-12"/>
			<path fill="none" stroke="#8D5BB4" stroke-width="4" stroke-linecap="round" stroke-miterlimit="10" d="M1648.833,15
				c7.525,0,11.682-12,19.775-12c8.111,0,12.26,12,19.784,12c7.523,0,11.673-12,19.774-12"/>
		</g>
		<g>
			<path fill="none" stroke="#FEB737" stroke-width="4" stroke-linecap="round" stroke-miterlimit="10" d="M1767.167,15
				c-7.525,0-11.682-12-19.775-12c-8.111,0-12.26,12-19.784,12c-7.523,0-11.673-12-19.774-12"/>
			<path fill="none" stroke="#A6C3FD" stroke-width="4" stroke-linecap="round" stroke-miterlimit="10" d="M1766.833,15
				c7.525,0,11.682-12,19.775-12c8.111,0,12.26,12,19.784,12c7.523,0,11.673-12,19.774-12"/>
			<path fill="none" stroke="#E191E5" stroke-width="4" stroke-linecap="round" stroke-miterlimit="10" d="M1885.167,15
				c-7.525,0-11.682-12-19.775-12c-8.111,0-12.26,12-19.784,12c-7.523,0-11.673-12-19.774-12"/>
			<path fill="none" stroke="#8D5BB4" stroke-width="4" stroke-linecap="round" stroke-miterlimit="10" d="M1884.833,15
				c7.525,0,11.682-12,19.775-12c8.111,0,12.26,12,19.784,12c7.523,0,11.673-12,19.774-12"/>
		</g>
		<g>
			<path fill="none" stroke="#FEB737" stroke-width="4" stroke-linecap="round" stroke-miterlimit="10" d="M2003.167,15
				c-7.525,0-11.682-12-19.775-12c-8.111,0-12.26,12-19.784,12c-7.523,0-11.673-12-19.774-12"/>
		</g>
	</g>
</g>
</svg>
