<?xml version="1.0" encoding="utf-8"?>
<!-- Generator: Adobe Illustrator 19.0.0, SVG Export Plug-In . SVG Version: 6.00 Build 0)  -->
<svg version="1.1" id="Layer_1" xmlns="http://www.w3.org/2000/svg" xmlns:xlink="http://www.w3.org/1999/xlink" x="0px" y="0px"
	 viewBox="-412 290.3 16 16" style="enable-background:new -412 290.3 16 16;" xml:space="preserve">
<style type="text/css">
	.st0{fill:#8D5BB4;}
</style>
<g>
	<path class="st0" d="M-404,306.3c-3.4,0-6-2.5-6-5.6v-3.4c0-0.6,0.4-1,1-1h10c0.6,0,1,0.4,1,1v3.4
		C-398,303.8-400.6,306.3-404,306.3z M-408,298.3v2.4c0,2,1.8,3.6,4,3.6s4-1.6,4-3.6v-2.4H-408z"/>
</g>
<g>
	<path class="st0" d="M-400.5,298c-0.6,0-1-0.4-1-1v-2.3c0-1.1-1.1-2.1-2.5-2.1c-1.4,0-2.5,1-2.5,2.1v2.3c0,0.6-0.4,1-1,1
		s-1-0.4-1-1v-2.3c0-2.3,2-4.1,4.5-4.1s4.5,1.8,4.5,4.1v2.3C-399.5,297.5-399.9,298-400.5,298z"/>
</g>
</svg>
